<svg width="224" height="268" viewBox="0 0 224 268" fill="none" xmlns="http://www.w3.org/2000/svg">
<g filter="url(#filter0_d_7_391)">
<rect x="4" width="216" height="260" rx="15" fill="white"/>
<path d="M113.5 109.005C139.223 109.005 160.071 89.3037 160.071 65.0026C160.071 40.7015 139.223 21 113.5 21C87.7766 21 66.9286 40.7015 66.9286 65.0026C66.9286 89.3037 87.7766 109.005 113.5 109.005ZM131.947 125.506H95.0534C60.2376 125.506 32 152.183 32 185.081C32 191.661 37.6468 197 44.6107 197H182.397C189.36 197.01 195 191.682 195 185.081C195 152.183 166.766 125.506 131.947 125.506Z" fill="#E5E5E5"/>
<path d="M27.52 243.6V239.04H28.64C29.0267 238.427 29.3 237.727 29.46 236.94C29.6333 236.153 29.72 235.173 29.72 234V231.22H37.34V239.04H38.94V243.6H36.82V241H29.64V243.6H27.52ZM30.9 239.04H35V233.14H31.86V234.58C31.86 235.42 31.7733 236.233 31.6 237.02C31.44 237.807 31.2067 238.48 30.9 239.04ZM45.2633 241.2C44.2499 241.2 43.3699 240.993 42.6233 240.58C41.8766 240.167 41.2966 239.58 40.8833 238.82C40.4699 238.047 40.2633 237.14 40.2633 236.1C40.2633 235.06 40.4699 234.16 40.8833 233.4C41.2966 232.64 41.8766 232.053 42.6233 231.64C43.3699 231.227 44.2499 231.02 45.2633 231.02C46.2766 231.02 47.1566 231.227 47.9033 231.64C48.6499 232.053 49.2299 232.64 49.6433 233.4C50.0566 234.16 50.2633 235.06 50.2633 236.1C50.2633 237.14 50.0566 238.047 49.6433 238.82C49.2299 239.58 48.6499 240.167 47.9033 240.58C47.1566 240.993 46.2766 241.2 45.2633 241.2ZM45.2633 239.3C46.0099 239.3 46.6099 239.033 47.0633 238.5C47.5166 237.953 47.7433 237.153 47.7433 236.1C47.7433 235.033 47.5166 234.24 47.0633 233.72C46.6099 233.187 46.0099 232.92 45.2633 232.92C44.5166 232.92 43.9166 233.187 43.4633 233.72C43.0099 234.24 42.7833 235.033 42.7833 236.1C42.7833 237.153 43.0099 237.953 43.4633 238.5C43.9166 239.033 44.5166 239.3 45.2633 239.3ZM57.1602 241.2C55.5868 241.2 54.3402 240.72 53.4202 239.76C52.5135 238.8 52.0602 237.387 52.0602 235.52V234.06C52.0602 232.087 52.5002 230.587 53.3802 229.56C54.2602 228.52 55.5668 227.793 57.3002 227.38L60.7202 226.54L61.4602 228.52L57.4802 229.46C56.4802 229.7 55.7202 230.147 55.2002 230.8C54.6802 231.44 54.4202 232.253 54.4202 233.24V233.34C54.7135 232.74 55.1468 232.253 55.7202 231.88C56.3068 231.507 57.0202 231.32 57.8602 231.32C58.6735 231.32 59.3935 231.52 60.0202 231.92C60.6602 232.307 61.1602 232.86 61.5202 233.58C61.8802 234.3 62.0602 235.16 62.0602 236.16C62.0602 237.187 61.8535 238.08 61.4402 238.84C61.0402 239.587 60.4735 240.167 59.7402 240.58C59.0068 240.993 58.1468 241.2 57.1602 241.2ZM57.0602 239.3C57.8468 239.3 58.4535 239.04 58.8802 238.52C59.3202 238 59.5402 237.247 59.5402 236.26C59.5402 235.287 59.3202 234.54 58.8802 234.02C58.4535 233.487 57.8468 233.22 57.0602 233.22C56.2868 233.22 55.6802 233.48 55.2402 234C54.8002 234.52 54.5802 235.24 54.5802 236.16C54.5802 237.187 54.7935 237.967 55.2202 238.5C55.6602 239.033 56.2735 239.3 57.0602 239.3ZM67.617 241.2C66.9104 241.2 66.277 241.067 65.717 240.8C65.1704 240.52 64.737 240.147 64.417 239.68C64.1104 239.213 63.957 238.687 63.957 238.1C63.957 237.38 64.1437 236.813 64.517 236.4C64.8904 235.973 65.497 235.667 66.337 235.48C67.177 235.293 68.3037 235.2 69.717 235.2H70.417V234.78C70.417 234.113 70.2704 233.633 69.977 233.34C69.6837 233.047 69.1904 232.9 68.497 232.9C67.9504 232.9 67.3904 232.987 66.817 233.16C66.2437 233.32 65.6637 233.573 65.077 233.92L64.357 232.22C64.7037 231.98 65.1104 231.773 65.577 231.6C66.057 231.413 66.557 231.273 67.077 231.18C67.6104 231.073 68.1104 231.02 68.577 231.02C70.0037 231.02 71.0637 231.353 71.757 232.02C72.4504 232.673 72.797 233.693 72.797 235.08V241H70.457V239.44C70.2304 239.987 69.8704 240.42 69.377 240.74C68.8837 241.047 68.297 241.2 67.617 241.2ZM68.137 239.48C68.7904 239.48 69.3304 239.253 69.757 238.8C70.197 238.347 70.417 237.773 70.417 237.08V236.64H69.737C68.4837 236.64 67.6104 236.74 67.117 236.94C66.637 237.127 66.397 237.473 66.397 237.98C66.397 238.42 66.5504 238.78 66.857 239.06C67.1637 239.34 67.5904 239.48 68.137 239.48ZM75.588 241V231.22H80.868C82.1346 231.22 83.0413 231.447 83.588 231.9C84.148 232.34 84.428 232.967 84.428 233.78C84.428 234.287 84.288 234.727 84.008 235.1C83.728 235.473 83.3413 235.747 82.848 235.92C83.488 236.067 83.968 236.347 84.288 236.76C84.608 237.173 84.768 237.673 84.768 238.26C84.768 239.1 84.448 239.767 83.808 240.26C83.168 240.753 82.2413 241 81.028 241H75.588ZM77.908 235.24H80.628C81.108 235.24 81.4813 235.133 81.748 234.92C82.0146 234.693 82.148 234.38 82.148 233.98C82.148 233.58 82.0146 233.28 81.748 233.08C81.4813 232.867 81.108 232.76 80.628 232.76H77.908V235.24ZM77.908 239.46H80.808C81.928 239.46 82.488 239.013 82.488 238.12C82.488 237.227 81.928 236.78 80.808 236.78H77.908V239.46ZM86.9552 241V231.22H89.2152V237.74L94.1152 231.22H96.1952V241H93.9352V234.48L89.0352 241H86.9552ZM101.085 241V233.18H97.7455V231.22H106.945V233.18H103.585V241H101.085ZM108.479 241V231.22H110.979V234.46H113.559C114.852 234.46 115.825 234.733 116.479 235.28C117.145 235.827 117.479 236.627 117.479 237.68C117.479 238.68 117.125 239.487 116.419 240.1C115.725 240.7 114.772 241 113.559 241H108.479ZM110.979 239.36H113.179C113.805 239.36 114.292 239.227 114.639 238.96C114.985 238.68 115.159 238.26 115.159 237.7C115.159 237.153 114.985 236.753 114.639 236.5C114.292 236.233 113.805 236.1 113.179 236.1H110.979V239.36ZM130.644 244.6V239.64C130.137 240.68 129.277 241.2 128.064 241.2C127.344 241.2 126.711 240.993 126.164 240.58C125.617 240.153 125.184 239.56 124.864 238.8C124.557 238.027 124.404 237.127 124.404 236.1C124.404 235.06 124.557 234.16 124.864 233.4C125.184 232.64 125.617 232.053 126.164 231.64C126.711 231.227 127.344 231.02 128.064 231.02C128.664 231.02 129.184 231.16 129.624 231.44C130.064 231.707 130.404 232.087 130.644 232.58V226.9H133.144V232.54C133.384 232.06 133.724 231.687 134.164 231.42C134.617 231.153 135.131 231.02 135.704 231.02C136.424 231.02 137.057 231.227 137.604 231.64C138.164 232.053 138.597 232.64 138.904 233.4C139.211 234.16 139.364 235.06 139.364 236.1C139.364 237.127 139.211 238.027 138.904 238.8C138.597 239.56 138.171 240.153 137.624 240.58C137.077 240.993 136.437 241.2 135.704 241.2C134.531 241.2 133.677 240.687 133.144 239.66V244.6H130.644ZM128.804 239.32C129.377 239.32 129.831 239.06 130.164 238.54C130.511 238.007 130.684 237.193 130.684 236.1C130.684 235.02 130.511 234.22 130.164 233.7C129.817 233.167 129.364 232.9 128.804 232.9C128.231 232.9 127.771 233.167 127.424 233.7C127.077 234.22 126.904 235.02 126.904 236.1C126.904 237.193 127.077 238.007 127.424 238.54C127.771 239.06 128.231 239.32 128.804 239.32ZM134.964 239.32C135.551 239.32 136.011 239.06 136.344 238.54C136.691 238.007 136.864 237.193 136.864 236.1C136.864 235.02 136.691 234.22 136.344 233.7C135.997 233.167 135.537 232.9 134.964 232.9C134.391 232.9 133.937 233.167 133.604 233.7C133.271 234.22 133.104 235.02 133.104 236.1C133.104 237.193 133.271 238.007 133.604 238.54C133.937 239.06 134.391 239.32 134.964 239.32ZM146.162 241.2C145.148 241.2 144.268 240.993 143.522 240.58C142.775 240.167 142.195 239.58 141.782 238.82C141.368 238.047 141.162 237.14 141.162 236.1C141.162 235.06 141.368 234.16 141.782 233.4C142.195 232.64 142.775 232.053 143.522 231.64C144.268 231.227 145.148 231.02 146.162 231.02C147.175 231.02 148.055 231.227 148.802 231.64C149.548 232.053 150.128 232.64 150.542 233.4C150.955 234.16 151.162 235.06 151.162 236.1C151.162 237.14 150.955 238.047 150.542 238.82C150.128 239.58 149.548 240.167 148.802 240.58C148.055 240.993 147.175 241.2 146.162 241.2ZM146.162 239.3C146.908 239.3 147.508 239.033 147.962 238.5C148.415 237.953 148.642 237.153 148.642 236.1C148.642 235.033 148.415 234.24 147.962 233.72C147.508 233.187 146.908 232.92 146.162 232.92C145.415 232.92 144.815 233.187 144.362 233.72C143.908 234.24 143.682 235.033 143.682 236.1C143.682 237.153 143.908 237.953 144.362 238.5C144.815 239.033 145.415 239.3 146.162 239.3ZM155.539 241V233.18H152.199V231.22H161.399V233.18H158.039V241H155.539ZM167.314 241.2C166.301 241.2 165.421 240.993 164.674 240.58C163.927 240.167 163.347 239.58 162.934 238.82C162.521 238.047 162.314 237.14 162.314 236.1C162.314 235.06 162.521 234.16 162.934 233.4C163.347 232.64 163.927 232.053 164.674 231.64C165.421 231.227 166.301 231.02 167.314 231.02C168.327 231.02 169.207 231.227 169.954 231.64C170.701 232.053 171.281 232.64 171.694 233.4C172.107 234.16 172.314 235.06 172.314 236.1C172.314 237.14 172.107 238.047 171.694 238.82C171.281 239.58 170.701 240.167 169.954 240.58C169.207 240.993 168.327 241.2 167.314 241.2ZM167.314 239.3C168.061 239.3 168.661 239.033 169.114 238.5C169.567 237.953 169.794 237.153 169.794 236.1C169.794 235.033 169.567 234.24 169.114 233.72C168.661 233.187 168.061 232.92 167.314 232.92C166.567 232.92 165.967 233.187 165.514 233.72C165.061 234.24 164.834 235.033 164.834 236.1C164.834 237.153 165.061 237.953 165.514 238.5C165.967 239.033 166.567 239.3 167.314 239.3Z" fill="#E5E5E5"/>
<path d="M209.247 234.965C209.247 235.898 208.274 236.653 207.074 236.653H197.296V244.244C197.296 245.177 196.323 245.931 195.123 245.931C193.924 245.931 192.951 245.177 192.951 244.244V236.653H183.173C181.973 236.653 181 235.898 181 234.965C181 234.033 181.973 233.279 183.173 233.279H192.951V225.687C192.951 224.755 193.924 224 195.123 224C196.323 224 197.296 224.755 197.296 225.687V233.279H207.074C208.276 233.278 209.247 234.032 209.247 234.965Z" fill="#E5E5E5"/>
</g>
<defs>
<filter id="filter0_d_7_391" x="0" y="0" width="224" height="268" filterUnits="userSpaceOnUse" color-interpolation-filters="sRGB">
<feFlood flood-opacity="0" result="BackgroundImageFix"/>
<feColorMatrix in="SourceAlpha" type="matrix" values="0 0 0 0 0 0 0 0 0 0 0 0 0 0 0 0 0 0 127 0" result="hardAlpha"/>
<feOffset dy="4"/>
<feGaussianBlur stdDeviation="2"/>
<feComposite in2="hardAlpha" operator="out"/>
<feColorMatrix type="matrix" values="0 0 0 0 0 0 0 0 0 0 0 0 0 0 0 0 0 0 0.25 0"/>
<feBlend mode="normal" in2="BackgroundImageFix" result="effect1_dropShadow_7_391"/>
<feBlend mode="normal" in="SourceGraphic" in2="effect1_dropShadow_7_391" result="shape"/>
</filter>
</defs>
</svg>
